PathFileType	4	(X/Y/Z)	E:\Qualisys_Data\Carbon_Farble_Plate\Data\Amateur_Runner\S1\T3\S1T3V21_c3d.trc
DataRate	CameraRate	NumFrames	NumMarkers	Units	OrigDataRate	OrigDataStartFrame	OrigNumFrames
200.000000	200.000000	5	39	mm	200.000000	260	298
Frame#	Time	LSHO			RSHO			LICST			RICST			LASIS			LHEEL			RASIS			LTROC			RTROC			SACR			LTH1			LSK4			LTH2			LTH3			RHM5			LSK2			LTH4			RTH1			LTOE			RTH2			RTH3			RTH4			LLEP			RLEP			LSK1			LSK3			RSK1			LHM5			RSK2			LFT1			RSK3			RSK4			LLME			RLME			RTOE			RHEEL			RFT1			RFT2			LFT2			
		X1	Y1	Z1	X2	Y2	Z2	X3	Y3	Z3	X4	Y4	Z4	X5	Y5	Z5	X6	Y6	Z6	X7	Y7	Z7	X8	Y8	Z8	X9	Y9	Z9	X10	Y10	Z10	X11	Y11	Z11	X12	Y12	Z12	X13	Y13	Z13	X14	Y14	Z14	X15	Y15	Z15	X16	Y16	Z16	X17	Y17	Z17	X18	Y18	Z18	X19	Y19	Z19	X20	Y20	Z20	X21	Y21	Z21	X22	Y22	Z22	X23	Y23	Z23	X24	Y24	Z24	X25	Y25	Z25	X26	Y26	Z26	X27	Y27	Z27	X28	Y28	Z28	X29	Y29	Z29	X30	Y30	Z30	X31	Y31	Z31	X32	Y32	Z32	X33	Y33	Z33	X34	Y34	Z34	X35	Y35	Z35	X36	Y36	Z36	X37	Y37	Z37	X38	Y38	Z38	X39	Y39	Z39	

261	1.3	2356.984130859375	1505.063110351562	-571.7508544921875	2281.04052734375	1499.449462890625	-252.3229064941406	2317.2666015625	1026.546142578125	-543.2700805664062	2301.582763671875	1066.857543945312	-246.9723052978516	2362.686279296875	989.1650390625	-516.4998779296875	1822.293334960938	199.6834716796875	-419.5279541015625	2341.84912109375	1020.785400390625	-253.4617004394531	2238.067138671875	914.05810546875	-553.2899780273438	2256.946044921875	925.8565673828124	-213.2813568115234	2191.353271484375	1060.621948242188	-396.52685546875	2322.3662109375	740.6425170898438	-511.5846252441406	1940.177612304688	325.2506408691406	-453.9213562011719	2245.634521484375	753.540283203125	-547.1664428710938	2290.34521484375	643.7869262695312	-486.1620178222656	2441.883544921875	167.1364440917969	-236.3582305908203	2007.243041992188	393.8427429199219	-494.6194763183594	2212.8046875	662.3167114257812	-517.9429931640625	2434.577880859375	882.0790405273438	-243.2103118896484	2015.0615234375	51.94585800170898	-414.3793640136719	2379.19384765625	833.0269165039062	-210.2049865722656	2501.501708984375	805.2146606445312	-242.7866058349609	2440.872802734375	754.5508422851562	-220.4039459228516	2189.0546875	514.540771484375	-473.5838317871094	2548.86767578125	629.126220703125	-256.03759765625	2068.03125	337.06298828125	-476.5896301269531	1994.6201171875	267.2832946777344	-471.7487487792969	2473.0751953125	457.0609130859375	-242.4619140625	1948.697631835938	70.3740234375	-479.8132934570312	2402.369140625	494.8125610351562	-257.8717346191406	1812.791748046875	171.9056549072266	-389.8920288085938	2429.477783203125	367.2957153320312	-257.7059326171875	2360.99755859375	405.0291442871094	-280.906494140625	1892.4326171875	199.1025238037109	-465.8192443847656	2339.2197265625	268.5151977539062	-261.612548828125	2498.26953125	155.9441833496094	-304.1611022949219	2267.419189453125	249.7004852294922	-310.328857421875	2268.834228515625	218.2310028076172	-338.6273803710938	2259.02001953125	225.8677978515625	-288.5046081542969	1806.5185546875	169.9752960205078	-440.4072265625
262	1.305	2378.10107421875	1509.455688476562	-570.146728515625	2297.330810546875	1502.843994140625	-252.571533203125	2340.007568359375	1029.649658203125	-542.5125122070312	2322.880615234375	1070.562377929688	-247.1659393310547	2384.612060546875	991.6071166992188	-515.5558471679688	1835.5546875	210.8983917236328	-420.585205078125	2362.87060546875	1024.708618164062	-253.1722869873047	2260.5478515625	917.9066772460938	-553.4893798828125	2277.29833984375	930.0924072265624	-212.5438842773438	2213.287841796875	1064.213745117188	-396.7888488769531	2339.4755859375	742.7194213867188	-511.6387939453125	1951.564575195312	331.5563659667969	-454.8992004394531	2261.80712890625	757.7266845703125	-546.8341064453125	2308.83154296875	646.5728149414062	-487.5623168945312	2484.251220703125	165.2151947021484	-236.1436920166016	2018.0869140625	399.9659423828125	-495.3789672851562	2228.836181640625	667.313720703125	-518.449462890625	2455.687744140625	886.6262817382812	-243.5538177490234	2018.682373046875	51.18700408935547	-415.2293395996094	2400.686279296875	837.3599243164062	-210.6742858886719	2521.837890625	809.8897705078125	-243.1515960693359	2462.374267578125	759.11279296875	-221.18212890625	2202.095703125	519.9187622070312	-474.3792724609375	2569.918212890625	632.898681640625	-256.7066345214844	2079.888427734375	343.8374328613281	-477.9247741699219	2005.916748046875	274.0428161621094	-473.5028076171875	2501.3798828125	456.3725280761719	-242.5849609375	1953.182373046875	73.4435043334961	-480.1217651367188	2428.68310546875	490.9736022949219	-256.8739013671875	1823.84814453125	184.0018157958984	-390.8075866699219	2461.906982421875	364.7244567871094	-257.7280883789062	2391.724609375	399.3813171386719	-281.3558349609375	1904.68212890625	206.2286987304688	-467.5694580078125	2376.743408203125	261.0908203125	-261.8202819824219	2544.38525390625	157.9701080322266	-304.5004272460938	2305.879638671875	239.0722198486328	-310.8473205566406	2308.799560546875	207.7037353515625	-339.1742248535156	2298.708251953125	214.5183258056641	-288.4591674804688	1817.8935546875	182.0903625488281	-441.3869934082031
263	1.31	2398.60205078125	1513.899047851562	-568.2759399414062	2315.2783203125	1505.721313476562	-252.1137542724609	2362.40087890625	1032.180908203125	-542.3643798828125	2344.08984375	1074.342529296875	-246.6786193847656	2406.803955078125	993.9286499023438	-514.8951416015625	1849.716064453125	222.4896240234375	-422.021240234375	2384.2470703125	1028.356567382812	-252.3282318115234	2281.33935546875	921.5855712890624	-553.151123046875	2298.0419921875	933.955078125	-212.8636932373047	2235.4248046875	1067.892456054688	-397.3066101074219	2357.9892578125	744.9850463867188	-514.0795288085938	1963.991088867188	337.8185424804688	-455.6251525878906	2280.8994140625	761.9688110351562	-547.0289306640625	2322.236083984375	650.2822875976562	-488.0604248046875	2526.90869140625	163.5078125	-237.5326385498047	2030.491088867188	406.3961791992188	-496.0007629394531	2244.85498046875	672.20849609375	-518.348388671875	2476.924560546875	890.6654663085938	-243.50537109375	2022.952270507812	50.51853561401367	-415.9687805175781	2421.43994140625	841.0199584960938	-211.2091827392578	2543.80322265625	813.614013671875	-244.1098327636719	2483.12109375	762.5784301757812	-223.1397552490234	2215.463623046875	524.9615478515625	-475.1603088378906	2589.95703125	636.056884765625	-257.10498046875	2091.99267578125	350.1216735839844	-479.1941528320312	2017.942993164062	280.890869140625	-475.1969299316406	2529.8369140625	455.8311462402344	-242.0973510742188	1957.862060546875	76.43505096435547	-479.6744079589844	2455.820556640625	486.575927734375	-257.9037475585938	1837.086669921875	196.3832702636719	-391.6069641113281	2494.32568359375	362.1257934570312	-257.5759887695312	2422.79345703125	393.5429382324219	-281.505859375	1916.932861328125	213.8751831054688	-469.4830932617188	2413.544677734375	254.7779388427734	-262.3790893554688	2586.869140625	159.7082977294922	-305.2538146972656	2344.609375	228.5188903808594	-311.7550048828125	2349.17236328125	198.1246185302734	-339.845703125	2338.53466796875	203.3779296875	-289.4863586425781	1830.220947265625	194.5155487060547	-442.2715759277344
264	1.315	2419.3671875	1518.170166015625	-566.9508666992188	2333.56982421875	1508.147583007812	-252.1912078857422	2384.974853515625	1034.6953125	-542.0494384765625	2365.22509765625	1077.263793945312	-246.6344604492188	2428.6728515625	996.1119384765624	-514.0411987304688	1865.366455078125	234.6564025878906	-422.9955444335938	2405.193115234375	1031.336181640625	-251.8335113525391	2302.4462890625	925.0301513671876	-553.1193237304688	2318.859619140625	937.88671875	-212.2711486816406	2257.068115234375	1071.66455078125	-397.4696350097656	2378.924560546875	748.2208862304688	-518.83154296875	1976.625	344.1050720214844	-456.324462890625	2298.857666015625	766.1729736328125	-547.6744995117188	2338.1318359375	653.2675170898438	-489.3548889160156	2568.45068359375	162.1562652587891	-237.8264312744141	2043.556884765625	412.9205322265625	-496.3654174804688	2260.965087890625	676.6348266601562	-519.3314208984375	2497.66650390625	893.8406982421875	-243.2861328125	2028.006225585938	49.7894287109375	-416.7237243652344	2441.9677734375	844.3680419921875	-211.4622497558594	2564.281982421875	816.9039916992188	-244.0137023925781	2503.55712890625	766.0824584960938	-223.4918060302734	2229.119140625	529.5946655273438	-476.1424255371094	2609.698486328125	638.815673828125	-257.3211669921875	2104.489501953125	356.1702880859375	-480.7198181152344	2029.903442382812	286.9010925292969	-476.2850341796875	2557.03515625	455.0471801757812	-242.0509643554688	1964.42529296875	80.72493743896484	-479.33056640625	2481.82373046875	482.3118591308594	-257.6570739746094	1850.770263671875	209.7894287109375	-392.6565551757812	2526.727783203125	359.8047790527344	-257.9795532226562	2453.651123046875	387.8995361328125	-281.0824279785156	1929.102172851562	219.5946807861328	-470.0395812988281	2451.057861328125	247.7849578857422	-262.6376953125	2628.64306640625	161.60986328125	-305.4903869628906	2383.4677734375	218.4134368896484	-311.781005859375	2389.573486328125	187.6726837158203	-340.3477172851562	2378.47802734375	192.6854553222656	-289.8890075683594	1844.108520507812	207.5848083496094	-442.9704284667969
265	1.32	2440.064697265625	1521.740356445312	-565.2234497070312	2351.62890625	1510.477294921875	-252.3608093261719	2407.100830078125	1037.187255859375	-541.289794921875	2386.609130859375	1080.05517578125	-246.5197143554688	2450.2548828125	998.15234375	-513.396240234375	1882.4033203125	246.8364410400391	-424.5368957519531	2426.145263671875	1033.60205078125	-251.5918579101562	2323.48193359375	928.7405395507812	-553.1318969726562	2339.402099609375	940.7069702148438	-211.9171600341797	2278.151123046875	1074.998168945312	-397.70751953125	2399.52734375	751.8040771484375	-522.685546875	1989.657470703125	350.8272399902344	-457.1092224121094	2316.94140625	770.233642578125	-548.0680541992188	2354.046630859375	656.462158203125	-491.0638732910156	2610.080078125	161.2061462402344	-238.4031372070312	2056.618408203125	419.1426391601562	-497.345703125	2277.275634765625	681.363525390625	-520.223876953125	2518.475830078125	896.7261962890625	-242.3952026367188	2034.1904296875	49.02036285400391	-417.9590454101562	2461.6826171875	846.488525390625	-212.5050964355469	2584.447509765625	819.1486206054688	-244.4518127441406	2522.60986328125	768.3263549804688	-225.6103210449219	2243.76513671875	534.3259887695312	-477.5657043457031	2629.199462890625	640.6060180664062	-257.5441284179688	2117.414306640625	361.8655700683594	-481.6039123535156	2042.558471679688	293.2357482910156	-477.6045837402344	2584.78515625	453.6434936523438	-242.9482727050781	1971.7265625	85.10330963134766	-478.9342041015625	2507.422607421875	477.7914733886719	-256.9322814941406	1866.664428710938	223.4681243896484	-393.9099731445312	2558.06884765625	357.166748046875	-258.2503356933594	2483.984375	382.4883728027344	-280.8966369628906	1941.950927734375	226.9280548095703	-471.3461303710938	2488.380859375	241.0762023925781	-262.6728515625	2669.997314453125	164.08544921875	-306.5570373535156	2422.235595703125	208.7384338378906	-312.4277038574219	2430.3857421875	178.3687133789062	-341.1026611328125	2418.065185546875	183.0122528076172	-290.2865905761719	1859.27001953125	220.8466491699219	-444.0927429199219
